<?xml version="1.0" encoding="UTF-8"?>
<svg width="31px" height="29px" viewBox="0 0 31 29" version="1.1" xmlns="http://www.w3.org/2000/svg" xmlns:xlink="http://www.w3.org/1999/xlink">
    <!-- Generator: Sketch 55.1 (78136) - https://sketchapp.com -->
    <title>dollar copy 3</title>
    <desc>Created with Sketch.</desc>
    <g id="Page-1" stroke="none" stroke-width="1" fill="none" fill-rule="evenodd">
        <g id="Reward-History" transform="translate(-572.000000, -1198.000000)" fill-rule="nonzero">
            <g id="badge" transform="translate(50.000000, 1172.000000)">
                <g id="dollar-copy-3" transform="translate(522.000000, 26.000000)">
                    <g id="dollar-copy" transform="translate(0.500000, 0.000000)">
                        <path d="M15.0585938,0 C6.81457031,0 0,6.47402344 0,14.4433594 C0,22.4126953 6.81457031,29 15.0585938,29 C23.3026172,29 30,22.4126953 30,14.4433594 C30,6.47402344 23.3026172,0 15.0585938,0 Z" id="Path" fill="#FEDB41"></path>
                        <path d="M30,14.4433594 C30,22.4126953 23.1661292,29 14.7540984,29 L14.7540984,0 C23.1661292,0 30,6.47402344 30,14.4433594 Z" id="Path" fill="#FFCC33"></path>
                        <path d="M15.0589662,3.32786885 C8.72587738,3.32786885 3.44262295,8.32107047 3.44262295,14.4429993 C3.44262295,20.5649282 8.72587738,25.6721311 15.0589662,25.6721311 C21.392055,25.6721311 26.557377,20.5649282 26.557377,14.4429993 C26.557377,8.32107047 21.392055,3.32786885 15.0589662,3.32786885 Z" id="Path" fill="#FEA832"></path>
                        <path d="M26.557377,14.4429993 C26.557377,20.5649282 21.4760303,25.6721311 15.2459016,25.6721311 L15.2459016,3.32786885 C21.4760303,3.32786885 26.557377,8.32107047 26.557377,14.4429993 Z" id="Path" fill="#FE9923"></path>
                        <path d="M16.5595341,13.8428158 L15.6859362,13.8428158 L15.6859362,10.4869817 L16.5595341,10.4869817 C17.0488072,10.4869817 17.433132,10.8560675 17.433132,11.3259402 C17.433132,12.4333095 19.1803279,12.4333095 19.1803279,11.3259402 C19.1803279,9.93321311 18.0098231,8.80906461 16.5595341,8.80906461 L15.6859362,8.80906461 L15.6859362,7.97010608 C15.6859362,7.41633751 15.2491372,7.13114754 14.8123382,7.13114754 C14.3755393,7.13114754 13.9387403,7.41633751 13.9387403,7.97010608 L13.9387403,8.80906461 L12.9486626,8.80906461 C11.4983736,8.80906461 10.3278689,9.93321311 10.3278689,11.3259402 L10.3278689,13.0038573 C10.3278689,14.3965844 11.4983736,15.5207329 12.9486626,15.5207329 L13.9387403,15.5207329 L13.9387403,18.9884282 L12.9486626,18.9884282 C12.4593896,18.9884282 12.0750647,18.6193423 12.0750647,18.1494696 C12.0750647,17.0421003 10.3278689,17.0421003 10.3278689,18.1494696 C10.3278689,19.5421967 11.4983736,20.6663452 12.9486626,20.6663452 L13.9387403,20.6663452 L13.9387403,21.5053038 C13.9387403,22.0590723 14.3755393,22.3442623 14.8123382,22.3442623 C15.2491372,22.3442623 15.6859362,22.0590723 15.6859362,21.5053038 L15.6859362,20.6663452 L16.5595341,20.6663452 C18.0098231,20.6663452 19.1803279,19.5421967 19.1803279,18.1494696 L19.1803279,16.3596914 C19.1803279,14.9669643 18.0098231,13.8428158 16.5595341,13.8428158 Z M13.9387403,13.8428158 L12.9486626,13.8428158 C12.4593896,13.8428158 12.0750647,13.47373 12.0750647,13.0038573 L12.0750647,11.3259402 C12.0750647,10.8560675 12.4593896,10.4869817 12.9486626,10.4869817 L13.9387403,10.4869817 L13.9387403,13.8428158 Z M17.433132,18.1494696 C17.433132,18.6193423 17.0488072,18.9884282 16.5595341,18.9884282 L15.6859362,18.9884282 L15.6859362,15.5207329 L16.5595341,15.5207329 C17.0488072,15.5207329 17.433132,15.8898187 17.433132,16.3596914 L17.433132,18.1494696 Z" id="Shape" fill="#FEDB41"></path>
                        <path d="M16.5245902,13.8428158 L15.6393443,13.8428158 L15.6393443,10.4869817 L16.5245902,10.4869817 C17.0203869,10.4869817 17.4098361,10.8560675 17.4098361,11.3259402 C17.4098361,12.4333095 19.1803279,12.4333095 19.1803279,11.3259402 C19.1803279,9.93321311 17.9942164,8.80906461 16.5245902,8.80906461 L15.6393443,8.80906461 L15.6393443,7.97010608 C15.6393443,7.41633751 15.1967213,7.13114754 14.7540984,7.13114754 L14.7540984,22.3442623 C15.1967213,22.3442623 15.6393443,22.0590723 15.6393443,21.5053038 L15.6393443,20.6663452 L16.5245902,20.6663452 C17.9942164,20.6663452 19.1803279,19.5421967 19.1803279,18.1494696 L19.1803279,16.3596914 C19.1803279,14.9669643 17.9942164,13.8428158 16.5245902,13.8428158 Z M17.4098361,18.1494696 C17.4098361,18.6193423 17.0203869,18.9884282 16.5245902,18.9884282 L15.6393443,18.9884282 L15.6393443,15.5207329 L16.5245902,15.5207329 C17.0203869,15.5207329 17.4098361,15.8898187 17.4098361,16.3596914 L17.4098361,18.1494696 Z" id="Shape" fill="#FFCC33"></path>
                    </g>
                </g>
            </g>
        </g>
    </g>
</svg>