<?xml version="1.0" encoding="UTF-8"?>
<svg width="32px" height="34px" viewBox="0 0 32 34" version="1.1" xmlns="http://www.w3.org/2000/svg" xmlns:xlink="http://www.w3.org/1999/xlink">
    <!-- Generator: Sketch 55.1 (78136) - https://sketchapp.com -->
    <title>download (7)</title>
    <desc>Created with Sketch.</desc>
    <g id="Page-1" stroke="none" stroke-width="1" fill="none" fill-rule="evenodd">
        <g id="My-Account" transform="translate(-654.000000, -1180.000000)" fill="#5D5854" fill-rule="nonzero">
            <g id="download-(7)" transform="translate(654.000000, 1180.000000)">
                <path d="M32,15.9912088 L31.9627907,25.443956 C31.9627907,26.2659341 31.2930233,26.9010989 30.4744186,26.9010989 C30.4744186,26.9010989 30.4744186,26.9010989 30.4744186,26.9010989 C29.655814,26.9010989 28.9860465,26.2659341 28.9860465,25.443956 L29.0232558,15.9912088 C29.0232558,12.5164835 27.6837209,9.26593407 25.227907,6.8 C22.772093,4.37142857 19.5348837,2.98901099 16.0372093,2.98901099 C16.0372093,2.98901099 16,2.98901099 16,2.98901099 C8.85581395,2.98901099 3.01395349,8.78021978 2.97674419,15.9164835 L2.97674419,25.4065934 C2.97674419,26.2285714 2.30697674,26.9010989 1.48837209,26.9010989 C1.48837209,26.9010989 1.48837209,26.9010989 1.48837209,26.9010989 C0.669767442,26.9010989 0,26.2285714 0,25.4065934 L0.0372093023,15.9164835 C0.0372093023,7.13626374 7.21860465,0 16,0 C16,0 16.0372093,0 16.0372093,0 C20.3162791,0 24.3348837,1.68131868 27.3116279,4.70769231 C30.3627907,7.73406593 32,11.7318681 32,15.9912088 Z M12.5023256,16.7758242 C12.7627907,17.0373626 12.8744186,17.2989011 12.8744186,17.6351648 L12.8372093,32.767033 C12.8372093,33.4769231 12.2418605,34 11.5348837,34 C11.5348837,34 11.5348837,34 11.5348837,34 C6.62325581,34 5.02325581,31.1604396 4.8372093,29.5912088 C4.8372093,29.5538462 4.8372093,29.5912088 4.8372093,29.5164835 L4.8372093,20.9978022 C4.8372093,20.9604396 4.8372093,20.9230769 4.8372093,20.8483516 C5.02325581,19.3164835 6.66046512,16.4395604 11.5348837,16.4395604 C11.5348837,16.4395604 11.572093,16.4395604 11.572093,16.4395604 C11.9069767,16.4395604 12.2418605,16.5142857 12.5023256,16.7758242 Z M10.2697674,19.0923077 C7.9255814,19.4659341 7.51627907,20.8483516 7.44186047,21.1098901 L7.40465116,29.4417582 C7.47906977,29.7406593 7.88837209,31.0857143 10.2325581,31.4593407 L10.2697674,19.0923077 Z M27.2,20.9978022 L27.2372093,29.4791209 C27.2372093,29.5164835 27.2372093,29.5538462 27.2372093,29.5912088 C27.0511628,31.1230769 25.4511628,34 20.5395349,34 C20.5395349,34 20.5395349,34 20.5395349,34 C19.8325581,34 19.2372093,33.5142857 19.2372093,32.767033 L19.2,17.7098901 C19.2,17.3736264 19.3488372,17.0373626 19.572093,16.8131868 C19.8325581,16.5516484 20.1302326,16.4395604 20.5023256,16.4395604 C20.5023256,16.4395604 20.5395349,16.4395604 20.5395349,16.4395604 C25.4139535,16.4395604 27.0511628,19.3164835 27.2372093,20.8857143 C27.2,20.9230769 27.2,20.9230769 27.2,20.9978022 Z M24.6325581,29.4417582 L24.5953488,21.1098901 C24.5209302,20.810989 24.1116279,19.4659341 21.7674419,19.0923077 L21.8046512,31.4593407 C24.1860465,31.0483516 24.5581395,29.7032967 24.6325581,29.4417582 Z" id="Shape"></path>
            </g>
        </g>
    </g>
</svg>