<?xml version="1.0" encoding="UTF-8"?>
<svg width="22px" height="14px" viewBox="0 0 22 14" version="1.1" xmlns="http://www.w3.org/2000/svg" xmlns:xlink="http://www.w3.org/1999/xlink">
    <!-- Generator: Sketch 55.1 (78136) - https://sketchapp.com -->
    <title>down-arrow</title>
    <desc>Created with Sketch.</desc>
    <g id="Page-1" stroke="none" stroke-width="1" fill="none" fill-rule="evenodd">
        <g id="FAQs" transform="translate(-684.000000, -924.000000)" fill="#000000" fill-rule="nonzero">
            <g id="down-arrow" transform="translate(695.000000, 931.000000) scale(1, -1) translate(-695.000000, -931.000000) translate(684.000000, 924.000000)">
                <path d="M21.6065,11.4195 L19.4855,13.5405 C19.3917159,13.6343885 19.2644546,13.6871433 19.13175,13.6871433 C18.9990454,13.6871433 18.8717841,13.6343885 18.778,13.5405 L11,5.7625 L3.222,13.5405 C3.12821587,13.6343885 3.00095462,13.6871433 2.86825,13.6871433 C2.73554538,13.6871433 2.60828413,13.6343885 2.5145,13.5405 L0.3935,11.4195 C0.198309031,11.2242501 0.198309031,10.9077499 0.3935,10.7125 L8.525,2.58 L10.6465,0.459 C10.8417499,0.263809031 11.1582501,0.263809031 11.3535,0.459 L13.475,2.58 L21.6065,10.712 C21.801691,10.9072499 21.801691,11.2237501 21.6065,11.419 L21.6065,11.4195 Z" id="Path"></path>
            </g>
        </g>
    </g>
</svg>