<?xml version="1.0" encoding="UTF-8"?>
<svg width="24px" height="28px" viewBox="0 0 24 28" version="1.1" xmlns="http://www.w3.org/2000/svg" xmlns:xlink="http://www.w3.org/1999/xlink">
    <!-- Generator: Sketch 55.1 (78136) - https://sketchapp.com -->
    <title>Combined shape 103</title>
    <desc>Created with Sketch.</desc>
    <g id="Page-1" stroke="none" stroke-width="1" fill="none" fill-rule="evenodd">
        <g id="Artboard" transform="translate(-78.000000, -892.000000)" fill="#8D847D">
            <g id="Group-25" transform="translate(25.000000, 733.000000)">
                <g id="Group-23" transform="translate(51.000000, 46.000000)">
                    <path d="M13.997988,137.178012 L13.000689,135.740976 C12.262023,134.67687 5.784075,125.227171 5.784075,121.139666 C5.784075,116.651517 9.468819,112.999903 13.997988,112.999903 C18.52713,112.999903 22.211901,116.651517 22.211901,121.139666 C22.211901,125.226861 15.733953,134.67687 14.996043,135.740976 L13.997988,137.178012 Z M13.997988,115.399892 C10.80432,115.399892 8.205948,117.974907 8.205948,121.139666 C8.205948,123.358801 11.434257,129.003002 13.997988,132.90181 C16.561746,129.002196 19.790055,123.357282 19.790055,121.139666 C19.790055,117.974907 17.191656,115.399892 13.997988,115.399892 Z M20.961585,131.267831 C24.200127,132.222941 25.985772,133.779544 25.990497,135.650735 C25.999974,139.140529 19.97217,140.983479 14.013,140.99994 L13.930164,140.99994 C10.93527,140.99994 8.104239,140.551804 5.949666,139.73576 C2.52423,138.438503 2.007882,136.660467 2.005479,135.715835 C1.999971,133.860423 3.751677,132.301805 6.938271,131.32763 L8.095572,130.973703 L8.809803,133.267083 L7.652421,133.620607 C5.283495,134.344891 4.425759,135.266273 4.427298,135.709263 C4.428081,136.133932 5.176305,136.873716 6.814503,137.494057 C8.717571,138.214373 11.29545,138.615513 14.006628,138.599858 C20.198457,138.582684 23.571027,136.646796 23.568651,135.656532 C23.567895,135.207776 22.688046,134.281124 20.270952,133.567907 L19.110519,133.225667 L19.801125,130.925281 L20.961585,131.267831 Z M16.410384,120.889682 C16.410384,122.208174 15.328008,123.280805 13.997988,123.280805 C12.668022,123.280805 11.585619,122.208174 11.585619,120.889682 C11.585619,119.571438 12.668022,118.498652 13.997988,118.498652 C15.328008,118.498652 16.410384,119.571438 16.410384,120.889682 Z M13.997988,122.080702 L13.997988,122.080795 L13.997988,122.080702 Z" id="Combined-shape-103"></path>
                </g>
            </g>
        </g>
    </g>
</svg>