<?xml version="1.0" encoding="UTF-8"?>
<svg width="32px" height="32px" viewBox="0 0 32 32" version="1.1" xmlns="http://www.w3.org/2000/svg" xmlns:xlink="http://www.w3.org/1999/xlink">
    <!-- Generator: Sketch 55.1 (78136) - https://sketchapp.com -->
    <title>Combined shape 120</title>
    <desc>Created with Sketch.</desc>
    <g id="Page-1" stroke="none" stroke-width="1" fill="none" fill-rule="evenodd">
        <g id="Artboard" transform="translate(-685.000000, -470.000000)" fill="#5D5854">
            <path d="M702.000045,484.900087 L702.000045,502.000135 L700.00004,502.000135 L700.00004,484.900092 C697.717811,484.43682 696.00003,482.41905 696.00003,480.000115 C696.00003,477.581272 697.717811,475.563379 700.00004,475.100075 L700.00004,470.000055 L702.000045,470.000055 L702.000045,475.10008 C704.282278,475.563393 706.00002,477.581281 706.00002,480.000115 C706.00002,482.419041 704.282278,484.436806 702.000045,484.900087 Z M713.000055,496.900222 L713.000055,502.000135 L711.000015,502.000135 L711.000015,496.90021 C708.71777,496.436889 707.00004,494.419015 707.00004,492.00025 C707.00004,489.238785 709.238605,487.000115 712.00007,487.000115 C714.7615,487.000115 717.00003,489.238785 717.00003,492.00025 C717.00003,494.419035 715.282298,496.436922 713.000055,496.900222 Z M691.000035,496.90022 L691.000035,502.000135 L689.00003,502.000135 L689.00003,496.900215 C686.717789,496.436903 685.00002,494.419023 685.00002,492.00025 C685.00002,489.238785 687.23862,487.000115 690.00005,487.000115 C692.761445,487.000115 695.000045,489.238785 695.000045,492.00025 C695.000045,494.419032 693.282264,496.436917 691.000035,496.90022 Z M689.00003,470.000055 L691.000035,470.000055 L691.000035,487.000115 L689.00003,487.000115 L689.00003,470.000055 Z M690.00005,489.0039 C688.345285,489.0039 687.00377,490.345205 687.00377,492.00025 C687.00377,493.65484 688.345285,494.99646 690.00005,494.99646 C691.654815,494.99646 692.996295,493.65484 692.996295,492.00025 C692.996295,490.345205 691.654815,489.0039 690.00005,489.0039 Z M711.000015,470.000055 L713.000055,470.000055 L713.000055,487.000115 L711.000015,487.000115 L711.000015,470.000055 Z M712.00007,489.0039 C710.345235,489.0039 709.003825,490.345205 709.003825,492.00025 C709.003825,493.65484 710.345235,494.99646 712.00007,494.99646 C713.65487,494.99646 714.996315,493.65484 714.996315,492.00025 C714.996315,490.345205 713.65487,489.0039 712.00007,489.0039 Z M701.000025,477.003765 C699.345225,477.003765 698.003815,478.345315 698.003815,480.000115 C698.003815,481.65488 699.345225,482.996325 701.000025,482.996325 C702.654825,482.996325 703.996305,481.65488 703.996305,480.000115 C703.996305,478.345315 702.654825,477.003765 701.000025,477.003765 Z" id="Combined-shape-120"></path>
        </g>
    </g>
</svg>