<?xml version="1.0" encoding="UTF-8"?>
<svg width="32px" height="32px" viewBox="0 0 32 32" version="1.1" xmlns="http://www.w3.org/2000/svg" xmlns:xlink="http://www.w3.org/1999/xlink">
    <!-- Generator: Sketch 55.1 (78136) - https://sketchapp.com -->
    <title>download (4)</title>
    <desc>Created with Sketch.</desc>
    <g id="Page-1" stroke="none" stroke-width="1" fill="none" fill-rule="evenodd">
        <g id="My-Account" transform="translate(-654.000000, -804.000000)" fill="#5D5854" fill-rule="nonzero">
            <g id="download-(4)" transform="translate(654.000000, 804.000000)">
                <path d="M21.1826087,8.86956522 C22.2956522,10.1217391 22.8173913,11.826087 22.573913,13.6347826 C22.1565217,16.973913 19.7217391,18.1565217 17.5652174,18.1565217 C17.4608696,18.1565217 17.3913043,18.1565217 17.3913043,18.1565217 L17.3913043,18.9913043 C17.3913043,19.7565217 16.7652174,20.3826087 16,20.3826087 C15.2347826,20.3826087 14.6086957,19.7565217 14.6086957,18.9913043 L14.6086957,17.8782609 C14.6086957,16.7304348 15.0956522,15.373913 17.5652174,15.373913 C18.9217391,15.373913 19.6173913,14.6782609 19.7913043,13.2869565 C19.8608696,12.8347826 19.8956522,11.6173913 19.0608696,10.7130435 C18.4,9.9826087 17.3217391,9.6 15.8608696,9.6 C12.7304348,9.6 12.626087,11.6521739 12.626087,11.8608696 C12.626087,12.626087 12,13.2521739 11.2347826,13.2521739 C10.4695652,13.2521739 9.84347826,12.626087 9.84347826,11.8608696 C9.84347826,10.4695652 10.9217391,6.8173913 15.8608696,6.8173913 C18.7478261,6.8173913 20.3478261,7.93043478 21.1826087,8.86956522 Z M15.8956522,21.5652174 C15.4434783,21.5652174 14.9913043,21.7391304 14.6782609,22.0869565 C14.3652174,22.4 14.1565217,22.8521739 14.1565217,23.3043478 C14.1565217,23.7565217 14.3304348,24.2086957 14.6782609,24.5217391 C14.9913043,24.8347826 15.4434783,25.0434783 15.8956522,25.0434783 C16.3478261,25.0434783 16.8,24.8695652 17.1130435,24.5217391 C17.426087,24.2086957 17.6347826,23.7565217 17.6347826,23.3043478 C17.6347826,22.8521739 17.4608696,22.4 17.1130435,22.0869565 C16.8,21.773913 16.3826087,21.5652174 15.8956522,21.5652174 Z M32,16 C32,24.8347826 24.8347826,32 16,32 C7.16521739,32 0,24.8347826 0,16 C0,7.16521739 7.16521739,0 16,0 C24.8347826,0 32,7.16521739 32,16 Z M29.2173913,16 C29.2173913,8.69565217 23.3043478,2.7826087 16,2.7826087 C8.69565217,2.7826087 2.7826087,8.69565217 2.7826087,16 C2.7826087,23.3043478 8.69565217,29.2173913 16,29.2173913 C23.3043478,29.2173913 29.2173913,23.3043478 29.2173913,16 Z" id="XMLID_1489_"></path>
            </g>
        </g>
    </g>
</svg>