<?xml version="1.0" encoding="utf-8"?>
<!-- Generator: Adobe Illustrator 16.0.0, SVG Export Plug-In . SVG Version: 6.00 Build 0)  -->
<!DOCTYPE svg PUBLIC "-//W3C//DTD SVG 1.1//EN" "http://www.w3.org/Graphics/SVG/1.1/DTD/svg11.dtd">
<svg version="1.1" id="Capa_1" xmlns="http://www.w3.org/2000/svg" xmlns:xlink="http://www.w3.org/1999/xlink" x="0px" y="0px"
	 width="40px" height="40px" viewBox="105.5 289.5 40 40" enable-background="new 105.5 289.5 40 40" xml:space="preserve">
<path fill="#F96909" d="M145.5,309.5c0,11.055-8.946,20-20,20c-11.055,0-20-8.946-20-20c0-4.463,1.453-8.701,4.133-12.18h-2.57
	c-0.863,0-1.563-0.699-1.563-1.563c0-0.861,0.699-1.562,1.563-1.562h6.146c0.863,0,1.563,0.7,1.563,1.562v6.146
	c0,0.862-0.699,1.563-1.563,1.563c-0.862,0-1.563-0.7-1.563-1.563v-2.046c-1.963,2.809-3.021,6.144-3.021,9.642
	c0,9.327,7.549,16.875,16.875,16.875c9.327,0,16.875-7.549,16.875-16.875c0-9.327-7.549-16.875-16.875-16.875
	c-0.863,0-1.563-0.699-1.563-1.563s0.699-1.563,1.563-1.563C136.555,289.5,145.5,298.446,145.5,309.5z M125.5,311.063h9.219
	c0.863,0,1.563-0.699,1.563-1.563s-0.699-1.563-1.563-1.563h-7.656v-10.729c0-0.863-0.699-1.563-1.563-1.563
	s-1.563,0.699-1.563,1.563V309.5C123.938,310.363,124.637,311.063,125.5,311.063z"/>
</svg>
