<?xml version="1.0" encoding="UTF-8"?>
<svg width="32px" height="32px" viewBox="0 0 32 32" version="1.1" xmlns="http://www.w3.org/2000/svg" xmlns:xlink="http://www.w3.org/1999/xlink">
    <!-- Generator: Sketch 55.1 (78136) - https://sketchapp.com -->
    <title>Combined shape 82</title>
    <desc>Created with Sketch.</desc>
    <g id="Page-1" stroke="none" stroke-width="1" fill="none" fill-rule="evenodd">
        <g id="Artboard" transform="translate(-640.000000, -780.000000)" fill="#8D847D">
            <g id="Group-25" transform="translate(25.000000, 733.000000)">
                <g id="Group-23" transform="translate(51.000000, 46.000000)">
                    <path d="M594.999995,15.999935 C595.55226,15.999935 595.99998,16.447655 595.99998,16.999955 C595.99998,17.552255 595.55226,17.999905 594.999995,17.999905 L593.94947,17.999905 C593.45828,24.93176 587.930695,30.460325 580.999995,30.951655 L580.999995,31.99994 C580.999995,32.552065 580.552275,32.99996 579.999975,32.99996 C579.44778,32.99996 578.999955,32.552065 578.999955,31.99994 L578.999955,30.951655 C572.069255,30.460325 566.54167,24.93176 566.05048,17.999905 L564.99999,17.999905 C564.44769,17.999905 563.99997,17.552255 563.99997,16.999955 C563.99997,16.447655 564.44769,15.999935 564.99999,15.999935 L566.05048,15.999935 C566.54167,9.068115 572.069255,3.539515 578.999955,3.04822 L578.999955,2.000005 C578.999955,1.447775 579.44778,0.99995 579.999975,0.99995 C580.552275,0.99995 580.999995,1.447775 580.999995,2.000005 L580.999995,3.04822 C587.930695,3.539515 593.45828,9.068115 593.94947,15.999935 L594.999995,15.999935 Z M590.999985,17.999905 C590.447685,17.999905 590,17.552255 590,16.999955 C590,16.447655 590.447685,15.999935 590.999985,15.999935 L591.9495,15.999935 C591.46748,10.17198 586.82718,5.52986 580.999995,5.047945 L580.999995,5.999945 C580.999995,6.552245 580.552275,7 579.999975,7 C579.44778,7 578.999955,6.552245 578.999955,5.999945 L578.999955,5.047945 C573.17277,5.52986 568.532505,10.17198 568.05045,15.999935 L568.999965,15.999935 C569.552265,15.999935 569.999985,16.447655 569.999985,16.999955 C569.999985,17.552255 569.552265,17.999905 568.999965,17.999905 L568.05045,17.999905 C568.532505,23.82779 573.17277,28.47012 578.999955,28.951895 L578.999955,27.999825 C578.999955,27.447525 579.44778,26.99977 579.999975,26.99977 C580.552275,26.99977 580.999995,27.447525 580.999995,27.999825 L580.999995,28.951895 C586.82718,28.47012 591.46748,23.82779 591.9495,17.999905 L590.999985,17.999905 Z" id="Combined-shape-82"></path>
                </g>
            </g>
        </g>
    </g>
</svg>