<?xml version="1.0" encoding="utf-8"?>
<!-- Generator: Adobe Illustrator 16.0.0, SVG Export Plug-In . SVG Version: 6.00 Build 0)  -->
<!DOCTYPE svg PUBLIC "-//W3C//DTD SVG 1.1//EN" "http://www.w3.org/Graphics/SVG/1.1/DTD/svg11.dtd">
<svg version="1.1" id="Capa_1" xmlns="http://www.w3.org/2000/svg" xmlns:xlink="http://www.w3.org/1999/xlink" x="0px" y="0px"
	 width="39.737px" height="36.799px" viewBox="105.5 288.633 39.737 36.799" enable-background="new 105.5 288.633 39.737 36.799"
	 xml:space="preserve">
<g>
	<g>
		<path fill-rule="evenodd" clip-rule="evenodd" fill="#F96909" d="M131.991,294.53l-13.246-5.897L105.5,294.53v30.901l13.246-5.897
			l13.246,5.897l13.246-5.897v-30.901L131.991,294.53z M142.587,317.139l-9.272,4.008v-0.002l-1.153,0.587l-1.532-0.737
			l-10.561-4.409v-0.066l-1.342-0.612l-1.307,0.677v0.002l-0.022,0.01l-0.462,0.239v-0.04l-8.788,3.8v-23.529
			c0,0,5.922-2.561,8.3-3.588c0.343-0.148,0.601-0.26,0.768-0.332l1.511-0.77l1.688,0.813l0.001,0.013l10.25,4.279v0.039
			l1.496,0.682l1.791-0.928v0.069l8.634-3.732V317.139z M118.818,298.259c-0.715,0-1.294,0.579-1.294,1.295v10.405
			c0,0.715,0.58,1.295,1.294,1.295s1.294-0.58,1.294-1.295v-10.405C120.113,298.838,119.533,298.259,118.818,298.259z
			 M131.818,303.259c-0.715,0-1.294,0.579-1.294,1.295v10.405c0,0.715,0.58,1.295,1.294,1.295s1.294-0.58,1.294-1.295v-10.405
			C133.113,303.838,132.533,303.259,131.818,303.259z"/>
	</g>
</g>
</svg>
