<?xml version="1.0" encoding="utf-8"?>
<!-- Generator: Adobe Illustrator 16.0.0, SVG Export Plug-In . SVG Version: 6.00 Build 0)  -->
<!DOCTYPE svg PUBLIC "-//W3C//DTD SVG 1.1//EN" "http://www.w3.org/Graphics/SVG/1.1/DTD/svg11.dtd">
<svg version="1.1" id="Layer_1" xmlns="http://www.w3.org/2000/svg" xmlns:xlink="http://www.w3.org/1999/xlink" x="0px" y="0px"
	 width="26px" height="32px" viewBox="0 0 26 32" enable-background="new 0 0 26 32" xml:space="preserve">
<g>
	<g>
		<path fill-rule="evenodd" clip-rule="evenodd" fill="#8D847D" d="M13,18c-2.209,0-4,1.791-4,4s1.791,4,4,4c2.209,0,4-1.791,4-4
			S15.209,18,13,18z M13,24c-1.104,0-2-0.896-2-2s0.896-2,2-2c1.104,0,2,0.896,2,2S14.104,24,13,24z M23,12H6.005V9
			c0-3.866,3.143-7,7.021-7c3.536,0,6.453,2.609,6.941,6h2.026c-0.499-4.499-4.321-8-8.968-8C8.041,0,4,4.029,4,9v3H3
			c-1.657,0-3,1.344-3,3v14c0,1.657,1.343,3,3,3h20c1.656,0,3-1.343,3-3V15C26,13.344,24.657,12,23,12z M24,28c0,1.104-0.896,2-2,2
			H4c-1.104,0-2-0.896-2-2V16c0-1.104,0.896-2,2-2h18c1.104,0,2,0.896,2,2V28z"/>
	</g>
</g>
</svg>
