<?xml version="1.0" encoding="UTF-8"?>
<svg width="32px" height="36px" viewBox="0 0 32 36" version="1.1" xmlns="http://www.w3.org/2000/svg" xmlns:xlink="http://www.w3.org/1999/xlink">
    <!-- Generator: Sketch 55.1 (78136) - https://sketchapp.com -->
    <title>download (3)</title>
    <desc>Created with Sketch.</desc>
    <g id="Page-1" stroke="none" stroke-width="1" fill="none" fill-rule="evenodd">
        <g id="My-Account" transform="translate(-654.000000, -1306.000000)" fill="#5D5854" fill-rule="nonzero">
            <g id="download-(3)" transform="translate(654.000000, 1306.000000)">
                <path d="M16,18.6585366 C15.0736842,18.6585366 14.3157895,17.8682927 14.3157895,16.902439 L14.3157895,1.75609756 C14.3157895,0.790243902 15.0736842,0 16,0 C16.9263158,0 17.6842105,0.790243902 17.6842105,1.75609756 L17.6842105,16.902439 C17.6842105,17.8682927 16.9684211,18.6585366 16,18.6585366 Z M32,19.2292683 C32,12.8195122 28.5894737,7.06829268 23.1157895,4.21463415 C22.2736842,3.77560976 21.2631579,4.12682927 20.8421053,5.00487805 C20.4210526,5.88292683 20.7578947,6.93658537 21.6,7.37560976 C25.9368421,9.61463415 28.6315789,14.1804878 28.6315789,19.2292683 C28.6315789,26.5609756 22.9473684,32.4878049 16,32.4878049 C9.05263158,32.4878049 3.36842105,26.5609756 3.36842105,19.2292683 C3.36842105,14.1365854 6.06315789,9.61463415 10.4,7.33170732 C11.2421053,6.89268293 11.5789474,5.83902439 11.1578947,4.96097561 C10.7368421,4.08292683 9.72631579,3.73170732 8.88421053,4.17073171 C3.41052632,7.06829268 0,12.8195122 0,19.2292683 C0,28.4926829 7.15789474,36 16,36 C24.8421053,36 32,28.4926829 32,19.2292683 Z" id="XMLID_132_"></path>
            </g>
        </g>
    </g>
</svg>