<?xml version="1.0" encoding="utf-8"?>
<!-- Generator: Adobe Illustrator 16.0.0, SVG Export Plug-In . SVG Version: 6.00 Build 0)  -->
<!DOCTYPE svg PUBLIC "-//W3C//DTD SVG 1.1//EN" "http://www.w3.org/Graphics/SVG/1.1/DTD/svg11.dtd">
<svg version="1.1" id="Layer_1" xmlns="http://www.w3.org/2000/svg" xmlns:xlink="http://www.w3.org/1999/xlink" x="0px" y="0px"
	 width="32px" height="21px" viewBox="0 0 32 21" enable-background="new 0 0 32 21" xml:space="preserve">
<path fill="#8D847D" d="M29,0H3C1.343,0,0,1.343,0,3v15c0,1.657,1.343,3,3,3h26c1.656,0,3-1.343,3-3V3C32,1.343,30.657,0,29,0z M4,2
	h24c0.287,0,0.56,0.063,0.807,0.173L16.834,12.829c-0.189,0.146-0.475,0.245-0.759,0.245c-0.28,0-0.546-0.094-0.771-0.272
	L3.521,2.064C3.675,2.026,3.834,2,4,2z M2,4c0-0.2,0.039-0.391,0.093-0.573l7.866,7.167l-7.864,6.985C2.039,17.395,2,17.203,2,17V4z
	 M28,19H4c-0.144,0-0.283-0.017-0.418-0.045l7.875-6.997l2.565,2.338c1.235,0.986,2.91,0.947,4.078,0.042l2.559-2.277l7.76,6.895
	C28.284,18.983,28.143,19,28,19z M30,17c0,0.203-0.039,0.395-0.096,0.579l-7.73-6.867l7.803-6.945C29.985,3.844,30,3.92,30,4V17z"/>
</svg>
