<?xml version="1.0" encoding="utf-8"?>
<!-- Generator: Adobe Illustrator 16.0.0, SVG Export Plug-In . SVG Version: 6.00 Build 0)  -->
<!DOCTYPE svg PUBLIC "-//W3C//DTD SVG 1.1//EN" "http://www.w3.org/Graphics/SVG/1.1/DTD/svg11.dtd">
<svg version="1.1" id="Layer_1" xmlns="http://www.w3.org/2000/svg" xmlns:xlink="http://www.w3.org/1999/xlink" x="0px" y="0px"
	 width="22px" height="32px" viewBox="0 0 22 32" enable-background="new 0 0 22 32" xml:space="preserve">
<g>
	<g>
		<path fill-rule="evenodd" clip-rule="evenodd" fill="#8D847D" d="M11,24c-1.104,0-2,0.896-2,2s0.896,2,2,2s2-0.896,2-2
			S12.104,24,11,24z M19,0H3C1.343,0,0,1.343,0,3v26c0,1.657,1.343,3,3,3h16c1.656,0,3-1.343,3-3V3C22,1.343,20.656,0,19,0z M20,28
			c0,1.104-0.896,2-2,2H4c-1.104,0-2-0.896-2-2V4c0-1.104,0.896-2,2-2h14c1.104,0,2,0.896,2,2V28z M13,4H9C8.448,4,8,4.448,8,5
			c0,0.553,0.448,1,1,1h4c0.553,0,1-0.447,1-1C14,4.448,13.553,4,13,4z"/>
	</g>
</g>
</svg>
