<?xml version="1.0" encoding="UTF-8"?>
<svg width="36px" height="51px" viewBox="0 0 36 51" version="1.1" xmlns="http://www.w3.org/2000/svg" xmlns:xlink="http://www.w3.org/1999/xlink">
    <!-- Generator: Sketch 55.1 (78136) - https://sketchapp.com -->
    <title>Combined shape 79</title>
    <desc>Created with Sketch.</desc>
    <g id="Page-1" stroke="none" stroke-width="1" fill="none" fill-rule="evenodd">
        <g id="Artboard" transform="translate(-674.000000, -73.000000)" fill="#FFFFFF">
            <path d="M709.2082,107.24076 C710.53216,109.299227 710.22324,111.331088 708.35204,112.956651 C707.24876,113.919502 705.99544,114.405406 704.80388,114.785363 C701.7412,115.774767 698.36952,116.322469 694.19472,116.516873 L694.12412,116.516873 L689.84336,116.516873 L689.7728,116.516873 C685.59792,116.322469 682.22632,115.774767 679.16356,114.785363 C677.97204,114.396608 676.71868,113.910704 675.6154,112.956651 C673.73544,111.339886 673.43536,109.308025 674.74164,107.223111 C675.10352,106.666558 675.48304,106.127707 675.84492,105.606399 C676.11856,105.208899 676.38332,104.837846 676.63932,104.457995 C676.77168,104.263591 676.90408,104.060442 677.03644,103.866091 C677.72492,102.832432 678.43984,101.763475 679.093,100.694518 C680.24924,98.821657 680.9112,96.789796 681.123,94.50168 C681.28188,92.814319 681.5202,91.135809 681.84676,89.510246 C682.02332,88.626789 682.29692,87.796385 682.64116,87.063183 C683.02068,86.268077 683.96508,85.932375 684.75948,86.303428 C685.5538,86.683279 685.8892,87.628534 685.51848,88.42364 C685.2802,88.927193 685.09484,89.501448 684.97128,90.137554 C684.66236,91.657011 684.44172,93.220723 684.29164,94.802084 C684.03568,97.558402 683.20604,100.102614 681.81148,102.364283 C681.123,103.477389 680.39048,104.572846 679.68432,105.632952 C679.55196,105.827303 679.41956,106.030505 679.2872,106.224856 C679.01356,106.640058 678.72228,107.046462 678.44868,107.435111 C678.0868,107.947568 677.7514,108.433419 677.42484,108.937025 C677.30128,109.140174 677.0806,109.520078 677.12472,109.77628 C677.16,109.970631 677.3542,110.235631 677.6896,110.527184 C678.36924,111.11029 679.26952,111.445992 680.13448,111.728641 C682.91472,112.629747 686.01276,113.1333 689.87868,113.310002 L694.0888,113.310002 C697.96352,113.124502 701.05272,112.620949 703.833,111.728641 C704.7068,111.45479 705.59828,111.11029 706.27788,110.527184 C706.61332,110.244429 706.80744,109.970631 706.84276,109.77628 C706.88688,109.520078 706.67508,109.140174 706.54268,108.937025 C706.22492,108.442323 705.88072,107.947568 705.51884,107.435111 C705.2452,107.046462 704.95396,106.640058 704.68032,106.224856 C704.54796,106.030505 704.41556,105.827303 704.28312,105.632952 C703.57704,104.572846 702.84448,103.477389 702.156,102.364283 C700.77028,100.093816 699.9318,97.549551 699.67584,94.802084 C699.5258,93.220723 699.29632,91.657011 698.99624,90.137554 C698.68728,88.591491 698.06064,87.451832 697.08092,86.647981 C697.08092,86.63913 697.07212,86.63913 697.07212,86.63913 C695.81876,85.605471 694.38892,85.667322 693.4004,85.905875 C690.62892,86.568481 687.8398,85.46412 686.45408,83.149557 C685.82744,82.098249 685.50968,80.887941 685.545,79.660037 C685.58912,78.025623 686.25988,76.479613 687.4426,75.295805 C688.61652,74.120848 690.16992,73.440593 691.8028,73.396391 C694.5478,73.325795 697.0456,74.995507 698.01652,77.557368 C698.33428,78.378974 697.9194,79.297729 697.09856,79.606984 C696.27772,79.925037 695.3598,79.509835 695.05088,78.688229 C694.5566,77.389517 693.28564,76.541464 691.89992,76.576815 C690.19644,76.629762 688.76656,78.052123 688.72244,79.757186 C688.70476,80.384388 688.86364,80.993994 689.1814,81.524047 C689.83456,82.619451 691.2644,83.158408 692.65896,82.822706 C695.04204,82.257302 697.31924,82.743206 699.08448,84.200812 C700.63792,85.46412 701.65292,87.257534 702.10308,89.527948 C702.42964,91.153458 702.66796,92.831968 702.82684,94.519329 C703.04748,96.816296 703.70944,98.839306 704.85684,100.71222 C705.51004,101.78123 706.22492,102.850081 706.9134,103.88374 C707.04576,104.078091 707.17816,104.272442 707.31056,104.475644 C707.56652,104.855495 707.83128,105.226548 708.10492,105.624154 C708.4756,106.145356 708.84632,106.684207 709.2082,107.24076 Z M688.35712,119.520489 C688.35712,119.520489 690.51396,120.316496 692.24136,120.316496 C694.22948,120.316496 695.82492,119.520489 695.82492,119.520489 C696.78728,119.520489 697.56748,120.300596 697.56748,121.26297 C697.56748,122.225344 696.78728,123.005504 695.82492,123.005504 C695.82492,123.005504 694.22948,123.801511 692.24136,123.801511 C690.51396,123.801511 688.35712,123.005504 688.35712,123.005504 C687.3948,123.005504 686.6146,122.225344 686.6146,121.26297 C686.6146,120.300596 687.3948,119.520489 688.35712,119.520489 Z" id="Combined-shape-79"></path>
        </g>
    </g>
</svg>