<?xml version="1.0" encoding="UTF-8"?>
<svg width="21px" height="21px" viewBox="0 0 21 21" version="1.1" xmlns="http://www.w3.org/2000/svg" xmlns:xlink="http://www.w3.org/1999/xlink">
    <!-- Generator: Sketch 55.1 (78136) - https://sketchapp.com -->
    <title>Combined shape 22</title>
    <desc>Created with Sketch.</desc>
    <g id="Page-1" stroke="none" stroke-width="1" fill="none" fill-rule="evenodd">
        <g id="Artboard" transform="translate(-78.000000, -789.000000)" fill="#8D847D">
            <g id="Group-25" transform="translate(25.000000, 733.000000)">
                <path d="M73.27898,65.424374 C73.318111,65.7869426 73.338179,66.1556924 73.338179,66.529619 C73.338179,66.9039997 73.3180615,67.2731917 73.278835,67.636187 L73.237658,67.636187 C72.795074,72.170243 69.144026,75.819698 64.497272,76.372631 L64.497272,76.414823 C64.1337613,76.4541099 63.7640371,76.474259 63.389111,76.474259 C63.0154193,76.474259 62.6468955,76.4542422 62.284541,76.4152099 L62.284541,76.372631 C57.748379,75.93029 54.097304,72.280835 53.544101,67.636187 L53.4994406,67.636187 C53.4602144,67.2731917 53.440097,66.9039997 53.440097,66.529619 C53.440097,66.1556924 53.4601648,65.7869426 53.4992957,65.424374 L53.544101,65.424374 C53.986712,60.779645 57.637733,57.13019 62.284541,56.687849 L62.284541,56.6440267 C62.6468955,56.6049953 63.0154193,56.584979 63.389111,56.584979 C63.7640371,56.584979 64.1337613,56.6051276 64.497272,56.6444136 L64.497272,56.687849 C69.033407,57.13019 72.684455,60.779645 73.237658,65.424374 L73.27898,65.424374 Z M63.396131,63.97415 C64.802804,63.97415 65.95376,65.124539 65.95376,66.530564 C65.95376,67.93667 64.802804,69.087059 63.396131,69.087059 C61.989458,69.087059 60.838502,67.93667 60.838502,66.530564 C60.838502,65.124539 61.989458,63.97415 63.396131,63.97415 Z M63.390893,73.757627 C67.419347,73.757627 70.62152,70.556993 70.62152,66.53024 C70.62152,62.503649 67.419347,59.302934 63.390893,59.302934 C59.362358,59.302934 56.160239,62.503649 56.160239,66.53024 C56.160239,70.556993 59.362358,73.757627 63.390893,73.757627 Z" id="Combined-shape-22"></path>
            </g>
        </g>
    </g>
</svg>