<?xml version="1.0" encoding="UTF-8"?>
<svg width="24px" height="32px" viewBox="0 0 24 32" version="1.1" xmlns="http://www.w3.org/2000/svg" xmlns:xlink="http://www.w3.org/1999/xlink">
    <!-- Generator: Sketch 55.1 (78136) - https://sketchapp.com -->
    <title>XMLID_1197_</title>
    <desc>Created with Sketch.</desc>
    <g id="Page-1" stroke="none" stroke-width="1" fill="none" fill-rule="evenodd">
        <g id="My-Account" transform="translate(-658.000000, -1056.000000)" fill="#5D5854" fill-rule="nonzero">
            <path d="M680.588235,1056 L659.411765,1056 C658.635294,1056 658,1056.65455 658,1057.45455 L658,1086.54545 C658,1087.34545 658.635294,1088 659.411765,1088 L680.588235,1088 C681.364706,1088 682,1087.34545 682,1086.54545 L682,1057.45455 C682,1056.65455 681.364706,1056 680.588235,1056 Z M679.176471,1085.09091 L660.823529,1085.09091 L660.823529,1058.90909 L679.176471,1058.90909 L679.176471,1085.09091 Z M664.176471,1075.45455 C664.176471,1074.76364 664.741176,1074.18182 665.411765,1074.18182 L669.576471,1074.18182 C670.247059,1074.18182 670.811765,1074.76364 670.811765,1075.45455 C670.811765,1076.14545 670.247059,1076.72727 669.576471,1076.72727 L665.411765,1076.72727 C664.705882,1076.72727 664.176471,1076.14545 664.176471,1075.45455 Z M664.352941,1069.63636 C664.352941,1068.94545 664.917647,1068.36364 665.588235,1068.36364 L673.988235,1068.36364 C674.658824,1068.36364 675.223529,1068.94545 675.223529,1069.63636 C675.223529,1070.32727 674.694118,1070.90909 673.988235,1070.90909 L665.588235,1070.90909 C664.917647,1070.90909 664.352941,1070.32727 664.352941,1069.63636 Z M664.352941,1064.18182 C664.352941,1063.49091 664.917647,1062.90909 665.588235,1062.90909 L673.988235,1062.90909 C674.658824,1062.90909 675.223529,1063.49091 675.223529,1064.18182 C675.223529,1064.87273 674.694118,1065.45455 673.988235,1065.45455 L665.588235,1065.45455 C664.917647,1065.45455 664.352941,1064.87273 664.352941,1064.18182 Z M674.835294,1074.65455 C675.047059,1074.87273 675.188235,1075.2 675.188235,1075.56364 C675.188235,1075.89091 675.047059,1076.21818 674.835294,1076.47273 C674.623529,1076.72727 674.270588,1076.83636 673.952941,1076.83636 C673.635294,1076.83636 673.317647,1076.69091 673.070588,1076.47273 C672.823529,1076.25455 672.717647,1075.92727 672.717647,1075.56364 C672.717647,1075.23636 672.858824,1074.90909 673.070588,1074.65455 C673.529412,1074.18182 674.376471,1074.18182 674.835294,1074.65455 Z" id="XMLID_1197_"></path>
        </g>
    </g>
</svg>