<?xml version="1.0" encoding="utf-8"?>
<!-- Generator: Adobe Illustrator 16.0.0, SVG Export Plug-In . SVG Version: 6.00 Build 0)  -->
<!DOCTYPE svg PUBLIC "-//W3C//DTD SVG 1.1//EN" "http://www.w3.org/Graphics/SVG/1.1/DTD/svg11.dtd">
<svg version="1.1" id="Capa_1" xmlns="http://www.w3.org/2000/svg" xmlns:xlink="http://www.w3.org/1999/xlink" x="0px" y="0px"
	 width="39px" height="38.917px" viewBox="111.5 285.716 39 38.917" enable-background="new 111.5 285.716 39 38.917"
	 xml:space="preserve">
<g>
	<g>
		<path fill="#5D5854" d="M150.254,302.223c-0.093-0.607-0.513-1.115-1.093-1.32l-3.072-1.09c-0.182-0.514-0.388-1.014-0.616-1.496
			l1.398-2.937c0.264-0.554,0.201-1.208-0.163-1.703c-1.179-1.6-2.587-3.005-4.186-4.175c-0.497-0.364-1.15-0.426-1.707-0.162
			l-2.94,1.395c-0.484-0.229-0.985-0.434-1.501-0.615l-1.093-3.066c-0.205-0.577-0.713-0.995-1.32-1.089
			c-2.16-0.331-3.759-0.331-5.922,0c-0.607,0.094-1.115,0.512-1.32,1.089l-1.093,3.066c-0.516,0.182-1.017,0.387-1.501,0.615
			l-2.941-1.395c-0.555-0.264-1.21-0.202-1.706,0.162c-1.599,1.17-3.007,2.575-4.186,4.175c-0.364,0.495-0.427,1.149-0.163,1.703
			l1.398,2.937c-0.229,0.481-0.435,0.982-0.616,1.496l-3.073,1.091c-0.579,0.205-0.999,0.713-1.092,1.319
			c-0.168,1.099-0.246,2.036-0.246,2.952s0.078,1.854,0.246,2.953c0.092,0.607,0.513,1.114,1.093,1.32l3.072,1.09
			c0.182,0.515,0.388,1.014,0.616,1.497l-1.398,2.936c-0.264,0.554-0.201,1.208,0.163,1.702c1.177,1.599,2.585,3.003,4.186,4.176
			c0.496,0.364,1.151,0.427,1.706,0.162l2.941-1.395c0.484,0.229,0.985,0.434,1.501,0.614l1.093,3.066
			c0.205,0.578,0.713,0.996,1.32,1.09c1.08,0.166,2.049,0.246,2.961,0.246s1.88-0.08,2.961-0.246c0.607-0.094,1.115-0.512,1.32-1.09
			l1.093-3.066c0.516-0.181,1.017-0.386,1.501-0.614l2.94,1.395c0.557,0.265,1.212,0.202,1.708-0.162
			c1.602-1.175,3.01-2.58,4.185-4.176c0.364-0.494,0.427-1.148,0.163-1.702l-1.398-2.936c0.229-0.483,0.435-0.983,0.616-1.497
			l3.072-1.09c0.58-0.206,1-0.713,1.093-1.32c0.168-1.1,0.246-2.037,0.246-2.953C150.5,304.26,150.422,303.321,150.254,302.223z
			 M147.076,306.647l-2.882,1.022c-0.504,0.179-0.892,0.587-1.043,1.1c-0.258,0.868-0.597,1.69-1.009,2.444
			c-0.256,0.469-0.271,1.031-0.042,1.513l1.308,2.744c-0.632,0.757-1.33,1.455-2.09,2.085l-2.749-1.303
			c-0.483-0.231-1.046-0.213-1.517,0.041c-0.756,0.41-1.58,0.748-2.451,1.005c-0.513,0.151-0.922,0.538-1.101,1.041l-1.026,2.877
			c-1.047,0.106-1.903,0.106-2.949,0l-1.026-2.877c-0.179-0.502-0.588-0.89-1.101-1.041c-0.871-0.257-1.696-0.595-2.451-1.005
			c-0.471-0.257-1.034-0.272-1.517-0.041l-2.749,1.304c-0.76-0.631-1.458-1.328-2.09-2.086l1.308-2.744
			c0.229-0.481,0.214-1.044-0.042-1.513c-0.411-0.752-0.75-1.575-1.009-2.446c-0.151-0.511-0.539-0.919-1.043-1.098l-2.882-1.022
			c-0.055-0.523-0.081-1.005-0.081-1.473c0-0.467,0.026-0.947,0.081-1.471l2.883-1.024c0.503-0.178,0.891-0.586,1.042-1.098
			c0.258-0.868,0.597-1.691,1.009-2.446c0.256-0.468,0.271-1.031,0.042-1.513l-1.308-2.743c0.633-0.758,1.331-1.456,2.09-2.086
			l2.75,1.304c0.481,0.231,1.047,0.213,1.517-0.041c0.755-0.41,1.579-0.748,2.45-1.006c0.513-0.15,0.922-0.538,1.101-1.04
			l1.026-2.877c1.037-0.107,1.895-0.107,2.949,0l1.026,2.877c0.179,0.502,0.588,0.89,1.101,1.04
			c0.871,0.258,1.696,0.596,2.451,1.006c0.471,0.256,1.033,0.272,1.517,0.041l2.749-1.304c0.759,0.63,1.457,1.328,2.09,2.086
			l-1.308,2.743c-0.229,0.481-0.214,1.045,0.042,1.513c0.413,0.757,0.752,1.579,1.009,2.445c0.151,0.513,0.539,0.921,1.043,1.099
			l2.882,1.023c0.055,0.523,0.081,1.005,0.081,1.472C147.157,305.643,147.131,306.124,147.076,306.647z M131,297.063
			c-4.267,0-7.738,3.463-7.738,7.721s3.472,7.721,7.738,7.721s7.738-3.463,7.738-7.721S135.267,297.063,131,297.063z M131,309.169
			c-2.424,0-4.396-1.968-4.396-4.386s1.972-4.386,4.396-4.386c2.423,0,4.396,1.968,4.396,4.386S133.423,309.169,131,309.169z"/>
	</g>
</g>
</svg>
