<?xml version="1.0" encoding="UTF-8"?>
<svg width="82px" height="82px" viewBox="0 0 82 82" version="1.1" xmlns="http://www.w3.org/2000/svg" xmlns:xlink="http://www.w3.org/1999/xlink">
    <!-- Generator: Sketch 55.1 (78136) - https://sketchapp.com -->
    <title>Group 3</title>
    <desc>Created with Sketch.</desc>
    <g id="Page-1" stroke="none" stroke-width="1" fill="none" fill-rule="evenodd">
        <g id="Reward-History" transform="translate(-50.000000, -1172.000000)">
            <g id="badge" transform="translate(50.000000, 1172.000000)">
                <g id="Group-3">
                    <circle id="Oval" fill="#F9F3E6" cx="41" cy="41" r="41"></circle>
                    <g id="Group-2" transform="translate(17.000000, 18.000000)" fill-rule="nonzero">
                        <path d="M25.1619591,1.17936468 L30.4093755,15.4840337 L45.3021714,16.179192 C46.9399453,16.2557031 47.6102669,18.3710541 46.3293343,19.4196211 L34.6786769,28.9558242 L38.6366306,43.6904129 C39.0716641,45.3102629 37.3158909,46.6175106 35.9475252,45.6928188 L23.5000167,37.2816938 L11.0525083,45.6928188 C9.68414255,46.6175106 7.92836937,45.3102629 8.36340289,43.6904129 L12.3206458,28.9558242 L0.670699208,19.4196211 C-0.610233446,18.3710541 0.0600881349,16.2557031 1.69715127,16.179192 L16.590658,15.4840337 L21.8380744,1.17936468 C22.4152758,-0.393121561 24.5847577,-0.393121561 25.1619591,1.17936468 L25.1619591,1.17936468 Z" id="Path" fill="#FCDF6C"></path>
                        <path d="M46.2467035,16.3549475 L38.3327761,16 L25,26.5050011 L28.972746,40.742023 L36.5864417,45.6946292 C37.9995118,46.6138711 39.811912,45.3143281 39.3634,43.704025 L35.2761402,29.0562779 L47.3074237,19.5762785 C48.6302043,18.5338914 47.9379834,16.4310077 46.2467035,16.3549475 L46.2467035,16.3549475 Z" id="Path" fill="#F4B425"></path>
                    </g>
                </g>
            </g>
        </g>
    </g>
</svg>