<?xml version="1.0" encoding="UTF-8"?>
<svg width="32px" height="32px" viewBox="0 0 32 32" version="1.1" xmlns="http://www.w3.org/2000/svg" xmlns:xlink="http://www.w3.org/1999/xlink">
    <!-- Generator: Sketch 55.1 (78136) - https://sketchapp.com -->
    <title>XMLID_89_</title>
    <desc>Created with Sketch.</desc>
    <g id="Page-1" stroke="none" stroke-width="1" fill="none" fill-rule="evenodd">
        <g id="My-Account" transform="translate(-654.000000, -930.000000)" fill="#5D5854" fill-rule="nonzero">
            <path d="M669.06087,955.669565 C668.782609,955.669565 668.504348,955.565217 668.295652,955.391304 C667.947826,955.113043 667.773913,954.66087 667.878261,954.208696 L669.582609,945.513043 L668.643478,946.034783 C668.052174,946.347826 667.321739,946.173913 666.973913,945.582609 C666.66087,944.991304 666.834783,944.26087 667.426087,943.913043 L670.66087,942.069565 C671.078261,941.826087 671.6,941.86087 671.982609,942.13913 C672.365217,942.417391 672.53913,942.904348 672.469565,943.356522 L670.695652,952.4 L672.156522,951.773913 C672.782609,951.495652 673.478261,951.773913 673.756522,952.4 C674.034783,953.026087 673.756522,953.721739 673.130435,954 L669.547826,955.565217 C669.408696,955.634783 669.234783,955.669565 669.06087,955.669565 Z M672.504348,939.043478 C672.817391,938.730435 673.026087,938.278261 673.026087,937.826087 C673.026087,937.373913 672.852174,936.921739 672.504348,936.608696 C672.191304,936.295652 671.73913,936.086957 671.286957,936.086957 C670.834783,936.086957 670.382609,936.26087 670.069565,936.608696 C669.756522,936.921739 669.547826,937.373913 669.547826,937.826087 C669.547826,938.278261 669.721739,938.730435 670.069565,939.043478 C670.382609,939.356522 670.834783,939.565217 671.286957,939.565217 C671.73913,939.565217 672.191304,939.391304 672.504348,939.043478 Z M686,946 C686,937.165217 678.834783,930 670,930 C661.165217,930 654,937.165217 654,946 C654,954.834783 661.165217,962 670,962 C678.834783,962 686,954.834783 686,946 Z M683.217391,946 C683.217391,953.304348 677.304348,959.217391 670,959.217391 C662.695652,959.217391 656.782609,953.304348 656.782609,946 C656.782609,938.695652 662.695652,932.782609 670,932.782609 C677.304348,932.782609 683.217391,938.695652 683.217391,946 Z" id="XMLID_89_"></path>
        </g>
    </g>
</svg>