<?xml version="1.0" encoding="utf-8"?>
<!-- Generator: Adobe Illustrator 16.0.0, SVG Export Plug-In . SVG Version: 6.00 Build 0)  -->
<!DOCTYPE svg PUBLIC "-//W3C//DTD SVG 1.1//EN" "http://www.w3.org/Graphics/SVG/1.1/DTD/svg11.dtd">
<svg version="1.1" id="Layer_1" xmlns="http://www.w3.org/2000/svg" xmlns:xlink="http://www.w3.org/1999/xlink" x="0px" y="0px"
	 width="28px" height="28px" viewBox="0 0 28 28" enable-background="new 0 0 28 28" xml:space="preserve">
<path fill="#8D847D" d="M24.12,0H3.881C1.741,0,0,1.79,0,3.99v20.019C0,26.21,1.741,28,3.881,28H24.12C26.258,28,28,26.21,28,24.009
	V3.99C28,1.79,26.258,0,24.12,0z M25.8,24.009c0,0.953-0.755,1.729-1.681,1.729H3.881c-0.927,0-1.681-0.776-1.681-1.729V3.99
	c0-0.953,0.754-1.729,1.681-1.729H24.12c0.926,0,1.681,0.775,1.681,1.729V24.009z"/>
</svg>
