<?xml version="1.0" encoding="utf-8"?>
<!-- Generator: Adobe Illustrator 16.0.0, SVG Export Plug-In . SVG Version: 6.00 Build 0)  -->
<!DOCTYPE svg PUBLIC "-//W3C//DTD SVG 1.1//EN" "http://www.w3.org/Graphics/SVG/1.1/DTD/svg11.dtd">
<svg version="1.1" id="Capa_1" xmlns="http://www.w3.org/2000/svg" xmlns:xlink="http://www.w3.org/1999/xlink" x="0px" y="0px"
	 width="38px" height="35px" viewBox="105.5 291.5 38 35" enable-background="new 105.5 291.5 38 35" xml:space="preserve">
<g>
	<g>
		<path fill="#F96909" d="M130.833,316.955c1.742,0,3.167-1.433,3.167-3.183s-1.425-3.182-3.167-3.182s-3.167,1.432-3.167,3.182
			S129.092,316.955,130.833,316.955z M111.833,301.045c-1.742,0-3.167-1.432-3.167-3.182s1.425-3.182,3.167-3.182h25.333v3.182
			h3.167V291.5h-28.5c-3.483,0-6.333,2.863-6.333,6.363v20.683c0,4.454,3.483,7.954,7.917,7.954H143.5v-25.455H111.833z
			 M140.333,323.318h-26.917c-2.691,0-4.75-2.068-4.75-4.772v-15.273c0.95,0.637,2.059,0.955,3.167,0.955h28.5V323.318z"/>
	</g>
</g>
</svg>
