<?xml version="1.0" encoding="UTF-8"?>
<svg width="132px" height="182px" viewBox="0 0 132 182" version="1.1" xmlns="http://www.w3.org/2000/svg" xmlns:xlink="http://www.w3.org/1999/xlink">
    <!-- Generator: Sketch 55.1 (78136) - https://sketchapp.com -->
    <title>wallet</title>
    <desc>Created with Sketch.</desc>
    <g id="Page-1" stroke="none" stroke-width="1" fill="none" fill-rule="evenodd">
        <g id="Reward-History" transform="translate(-309.000000, -248.000000)" fill-rule="nonzero">
            <g id="wallet" transform="translate(309.000000, 248.000000)">
                <path d="M123.750113,103.142424 L123.750113,78.2856061 C123.750113,73.7118243 120.05429,70 115.500226,70 L8.24988688,70 C3.69582265,70 0,73.7118243 0,78.2856061 L0,148.714394 C0,153.288176 3.69582265,157 8.24988688,157 L115.500226,157 C120.05429,157 123.750113,153.288176 123.750113,148.714394 L123.750113,123.857121 C128.304177,123.857121 132,120.145297 132,115.571515 L132,111.428485 C132,106.854703 128.308249,103.142424 123.750113,103.142424 Z" id="Path" fill="#A66333"></path>
                <g id="dollar" transform="translate(31.000000, 57.000000)">
                    <path d="M22.5878906,0 C10.2218555,0 0,10.2691406 0,22.9101562 C0,35.5511719 10.2218555,46 22.5878906,46 C34.9539258,46 45,35.5511719 45,22.9101562 C45,10.2691406 34.9539258,0 22.5878906,0 Z" id="Path" fill="#FEDB41"></path>
                    <path d="M45,22.9101562 C45,35.5511719 34.7491938,46 22.1311475,46 L22.1311475,0 C34.7491938,0 45,10.2691406 45,22.9101562 Z" id="Path" fill="#FFCC33"></path>
                    <path d="M22.5884493,5.27868852 C13.0888161,5.27868852 5.16393443,13.1989394 5.16393443,22.9095851 C5.16393443,32.6202309 13.0888161,40.7213115 22.5884493,40.7213115 C32.0880826,40.7213115 39.8360656,32.6202309 39.8360656,22.9095851 C39.8360656,13.1989394 32.0880826,5.27868852 22.5884493,5.27868852 Z" id="Path" fill="#FEA832"></path>
                    <path d="M39.8360656,22.9095851 C39.8360656,32.6202309 32.2140454,40.7213115 22.8688525,40.7213115 L22.8688525,5.27868852 C32.2140454,5.27868852 39.8360656,13.1989394 39.8360656,22.9095851 Z" id="Path" fill="#FE9923"></path>
                    <path d="M24.8393011,21.9575699 L23.5289042,21.9575699 L23.5289042,16.6345227 L24.8393011,16.6345227 C25.5732107,16.6345227 26.149698,17.2199691 26.149698,17.9652845 C26.149698,19.7218014 28.7704918,19.7218014 28.7704918,17.9652845 C28.7704918,15.7561311 27.0147347,13.972999 24.8393011,13.972999 L23.5289042,13.972999 L23.5289042,12.6422372 C23.5289042,11.7638457 22.8737058,11.3114754 22.2185073,11.3114754 C21.5633089,11.3114754 20.9081104,11.7638457 20.9081104,12.6422372 L20.9081104,13.972999 L19.422994,13.972999 C17.2475604,13.972999 15.4918033,15.7561311 15.4918033,17.9652845 L15.4918033,20.6268081 C15.4918033,22.8359614 17.2475604,24.6190935 19.422994,24.6190935 L20.9081104,24.6190935 L20.9081104,30.1195757 L19.422994,30.1195757 C18.6890843,30.1195757 18.1125971,29.5341292 18.1125971,28.7888139 C18.1125971,27.032297 15.4918033,27.032297 15.4918033,28.7888139 C15.4918033,30.9979672 17.2475604,32.7810993 19.422994,32.7810993 L20.9081104,32.7810993 L20.9081104,34.1118611 C20.9081104,34.9902527 21.5633089,35.442623 22.2185073,35.442623 C22.8737058,35.442623 23.5289042,34.9902527 23.5289042,34.1118611 L23.5289042,32.7810993 L24.8393011,32.7810993 C27.0147347,32.7810993 28.7704918,30.9979672 28.7704918,28.7888139 L28.7704918,25.9498554 C28.7704918,23.740702 27.0147347,21.9575699 24.8393011,21.9575699 Z M20.9081104,21.9575699 L19.422994,21.9575699 C18.6890843,21.9575699 18.1125971,21.3721234 18.1125971,20.6268081 L18.1125971,17.9652845 C18.1125971,17.2199691 18.6890843,16.6345227 19.422994,16.6345227 L20.9081104,16.6345227 L20.9081104,21.9575699 Z M26.149698,28.7888139 C26.149698,29.5341292 25.5732107,30.1195757 24.8393011,30.1195757 L23.5289042,30.1195757 L23.5289042,24.6190935 L24.8393011,24.6190935 C25.5732107,24.6190935 26.149698,25.20454 26.149698,25.9498554 L26.149698,28.7888139 Z" id="Shape" fill="#FEDB41"></path>
                    <path d="M24.7868852,21.9575699 L23.4590164,21.9575699 L23.4590164,16.6345227 L24.7868852,16.6345227 C25.5305803,16.6345227 26.1147541,17.2199691 26.1147541,17.9652845 C26.1147541,19.7218014 28.7704918,19.7218014 28.7704918,17.9652845 C28.7704918,15.7561311 26.9913246,13.972999 24.7868852,13.972999 L23.4590164,13.972999 L23.4590164,12.6422372 C23.4590164,11.7638457 22.795082,11.3114754 22.1311475,11.3114754 L22.1311475,35.442623 C22.795082,35.442623 23.4590164,34.9902527 23.4590164,34.1118611 L23.4590164,32.7810993 L24.7868852,32.7810993 C26.9913246,32.7810993 28.7704918,30.9979672 28.7704918,28.7888139 L28.7704918,25.9498554 C28.7704918,23.740702 26.9913246,21.9575699 24.7868852,21.9575699 Z M26.1147541,28.7888139 C26.1147541,29.5341292 25.5305803,30.1195757 24.7868852,30.1195757 L23.4590164,30.1195757 L23.4590164,24.6190935 L24.7868852,24.6190935 C25.5305803,24.6190935 26.1147541,25.20454 26.1147541,25.9498554 L26.1147541,28.7888139 Z" id="Shape" fill="#FFCC33"></path>
                </g>
                <g id="dollar-copy-2" transform="translate(76.000000, 20.000000)">
                    <g id="dollar-copy">
                        <path d="M15.5605469,0 C7.04172266,0 0,6.92050781 0,15.4394531 C0,23.9583984 7.04172266,31 15.5605469,31 C24.0793711,31 31,23.9583984 31,15.4394531 C31,6.92050781 24.0793711,0 15.5605469,0 Z" id="Path" fill="#FEDB41"></path>
                        <path d="M31,15.4394531 C31,23.9583984 23.9383335,31 15.2459016,31 L15.2459016,0 C23.9383335,0 31,6.92050781 31,15.4394531 Z" id="Path" fill="#FFCC33"></path>
                        <path d="M15.5609317,3.55737705 C9.01673996,3.55737705 3.55737705,8.8949374 3.55737705,15.4390683 C3.55737705,21.9831991 9.01673996,27.442623 15.5609317,27.442623 C22.1051235,27.442623 27.442623,21.9831991 27.442623,15.4390683 C27.442623,8.8949374 22.1051235,3.55737705 15.5609317,3.55737705 Z" id="Path" fill="#FEA832"></path>
                        <path d="M27.442623,15.4390683 C27.442623,21.9831991 22.1918979,27.442623 15.7540984,27.442623 L15.7540984,3.55737705 C22.1918979,3.55737705 27.442623,8.8949374 27.442623,15.4390683 Z" id="Path" fill="#FE9923"></path>
                        <path d="M17.1115186,14.7974928 L16.2088007,14.7974928 L16.2088007,11.2102218 L17.1115186,11.2102218 C17.6171007,11.2102218 18.0142364,11.6047618 18.0142364,12.1070395 C18.0142364,13.2907792 19.8196721,13.2907792 19.8196721,12.1070395 C19.8196721,10.6182623 18.6101506,9.41658631 17.1115186,9.41658631 L16.2088007,9.41658631 L16.2088007,8.51976856 C16.2088007,7.92780906 15.7574418,7.62295082 15.3060828,7.62295082 C14.8547239,7.62295082 14.403365,7.92780906 14.403365,8.51976856 L14.403365,9.41658631 L13.3802847,9.41658631 C11.8816527,9.41658631 10.6721311,10.6182623 10.6721311,12.1070395 L10.6721311,13.900675 C10.6721311,15.3894523 11.8816527,16.5911283 13.3802847,16.5911283 L14.403365,16.5911283 L14.403365,20.2979749 L13.3802847,20.2979749 C12.8747025,20.2979749 12.4775669,19.9034349 12.4775669,19.4011572 C12.4775669,18.2174176 10.6721311,18.2174176 10.6721311,19.4011572 C10.6721311,20.8899344 11.8816527,22.0916104 13.3802847,22.0916104 L14.403365,22.0916104 L14.403365,22.9884282 C14.403365,23.5803877 14.8547239,23.8852459 15.3060828,23.8852459 C15.7574418,23.8852459 16.2088007,23.5803877 16.2088007,22.9884282 L16.2088007,22.0916104 L17.1115186,22.0916104 C18.6101506,22.0916104 19.8196721,20.8899344 19.8196721,19.4011572 L19.8196721,17.487946 C19.8196721,15.9991688 18.6101506,14.7974928 17.1115186,14.7974928 Z M14.403365,14.7974928 L13.3802847,14.7974928 C12.8747025,14.7974928 12.4775669,14.4029527 12.4775669,13.900675 L12.4775669,12.1070395 C12.4775669,11.6047618 12.8747025,11.2102218 13.3802847,11.2102218 L14.403365,11.2102218 L14.403365,14.7974928 Z M18.0142364,19.4011572 C18.0142364,19.9034349 17.6171007,20.2979749 17.1115186,20.2979749 L16.2088007,20.2979749 L16.2088007,16.5911283 L17.1115186,16.5911283 C17.6171007,16.5911283 18.0142364,16.9856683 18.0142364,17.487946 L18.0142364,19.4011572 Z" id="Shape" fill="#FEDB41"></path>
                        <path d="M17.0754098,14.7974928 L16.1606557,14.7974928 L16.1606557,11.2102218 L17.0754098,11.2102218 C17.5877331,11.2102218 17.9901639,11.6047618 17.9901639,12.1070395 C17.9901639,13.2907792 19.8196721,13.2907792 19.8196721,12.1070395 C19.8196721,10.6182623 18.5940236,9.41658631 17.0754098,9.41658631 L16.1606557,9.41658631 L16.1606557,8.51976856 C16.1606557,7.92780906 15.7032787,7.62295082 15.2459016,7.62295082 L15.2459016,23.8852459 C15.7032787,23.8852459 16.1606557,23.5803877 16.1606557,22.9884282 L16.1606557,22.0916104 L17.0754098,22.0916104 C18.5940236,22.0916104 19.8196721,20.8899344 19.8196721,19.4011572 L19.8196721,17.487946 C19.8196721,15.9991688 18.5940236,14.7974928 17.0754098,14.7974928 Z M17.9901639,19.4011572 C17.9901639,19.9034349 17.5877331,20.2979749 17.0754098,20.2979749 L16.1606557,20.2979749 L16.1606557,16.5911283 L17.0754098,16.5911283 C17.5877331,16.5911283 17.9901639,16.9856683 17.9901639,17.487946 L17.9901639,19.4011572 Z" id="Shape" fill="#FFCC33"></path>
                    </g>
                </g>
                <g id="dollar-copy-3" transform="translate(18.000000, 0.000000)">
                    <g id="dollar-copy">
                        <path d="M20.5800781,0 C9.31324609,0 0,9.15292969 0,20.4199219 C0,31.6869141 9.31324609,41 20.5800781,41 C31.8469102,41 41,31.6869141 41,20.4199219 C41,9.15292969 31.8469102,0 20.5800781,0 Z" id="Path" fill="#FEDB41"></path>
                        <path d="M41,20.4199219 C41,31.6869141 31.6603766,41 20.1639344,41 L20.1639344,0 C31.6603766,0 41,9.15292969 41,20.4199219 Z" id="Path" fill="#FFCC33"></path>
                        <path d="M20.5805872,4.70491803 C11.9253658,4.70491803 4.70491803,11.764272 4.70491803,20.4194128 C4.70491803,29.0745537 11.9253658,36.295082 20.5805872,36.295082 C29.2358085,36.295082 36.295082,29.0745537 36.295082,20.4194128 C36.295082,11.764272 29.2358085,4.70491803 20.5805872,4.70491803 Z" id="Path" fill="#FEA832"></path>
                        <path d="M36.295082,20.4194128 C36.295082,29.0745537 29.3505747,36.295082 20.8360656,36.295082 L20.8360656,4.70491803 C29.3505747,4.70491803 36.295082,11.764272 36.295082,20.4194128 Z" id="Path" fill="#FE9923"></path>
                        <path d="M22.6313632,19.5708775 L21.4374461,19.5708775 L21.4374461,14.8264224 L22.6313632,14.8264224 C23.3000365,14.8264224 23.8252804,15.3482334 23.8252804,16.0125362 C23.8252804,17.5781273 26.2131148,17.5781273 26.2131148,16.0125362 C26.2131148,14.0435082 24.6134249,12.4541948 22.6313632,12.4541948 L21.4374461,12.4541948 L21.4374461,11.268081 C21.4374461,10.4851668 20.8404875,10.0819672 20.2435289,10.0819672 C19.6465703,10.0819672 19.0496117,10.4851668 19.0496117,11.268081 L19.0496117,12.4541948 L17.6965056,12.4541948 C15.7144439,12.4541948 14.1147541,14.0435082 14.1147541,16.0125362 L14.1147541,18.3847637 C14.1147541,20.3537917 15.7144439,21.9431051 17.6965056,21.9431051 L19.0496117,21.9431051 L19.0496117,26.8457088 L17.6965056,26.8457088 C17.0278324,26.8457088 16.5025884,26.3238978 16.5025884,25.659595 C16.5025884,24.0940039 14.1147541,24.0940039 14.1147541,25.659595 C14.1147541,27.628623 15.7144439,29.2179364 17.6965056,29.2179364 L19.0496117,29.2179364 L19.0496117,30.4040501 C19.0496117,31.1869643 19.6465703,31.5901639 20.2435289,31.5901639 C20.8404875,31.5901639 21.4374461,31.1869643 21.4374461,30.4040501 L21.4374461,29.2179364 L22.6313632,29.2179364 C24.6134249,29.2179364 26.2131148,27.628623 26.2131148,25.659595 L26.2131148,23.1292189 C26.2131148,21.1601909 24.6134249,19.5708775 22.6313632,19.5708775 Z M19.0496117,19.5708775 L17.6965056,19.5708775 C17.0278324,19.5708775 16.5025884,19.0490665 16.5025884,18.3847637 L16.5025884,16.0125362 C16.5025884,15.3482334 17.0278324,14.8264224 17.6965056,14.8264224 L19.0496117,14.8264224 L19.0496117,19.5708775 Z M23.8252804,25.659595 C23.8252804,26.3238978 23.3000365,26.8457088 22.6313632,26.8457088 L21.4374461,26.8457088 L21.4374461,21.9431051 L22.6313632,21.9431051 C23.3000365,21.9431051 23.8252804,22.4649161 23.8252804,23.1292189 L23.8252804,25.659595 Z" id="Shape" fill="#FEDB41"></path>
                        <path d="M22.5836066,19.5708775 L21.3737705,19.5708775 L21.3737705,14.8264224 L22.5836066,14.8264224 C23.2611954,14.8264224 23.7934426,15.3482334 23.7934426,16.0125362 C23.7934426,17.5781273 26.2131148,17.5781273 26.2131148,16.0125362 C26.2131148,14.0435082 24.5920957,12.4541948 22.5836066,12.4541948 L21.3737705,12.4541948 L21.3737705,11.268081 C21.3737705,10.4851668 20.7688525,10.0819672 20.1639344,10.0819672 L20.1639344,31.5901639 C20.7688525,31.5901639 21.3737705,31.1869643 21.3737705,30.4040501 L21.3737705,29.2179364 L22.5836066,29.2179364 C24.5920957,29.2179364 26.2131148,27.628623 26.2131148,25.659595 L26.2131148,23.1292189 C26.2131148,21.1601909 24.5920957,19.5708775 22.5836066,19.5708775 Z M23.7934426,25.659595 C23.7934426,26.3238978 23.2611954,26.8457088 22.5836066,26.8457088 L21.3737705,26.8457088 L21.3737705,21.9431051 L22.5836066,21.9431051 C23.2611954,21.9431051 23.7934426,22.4649161 23.7934426,23.1292189 L23.7934426,25.659595 Z" id="Shape" fill="#FFCC33"></path>
                    </g>
                </g>
                <path d="M8.30758717,82.3116874 L99.6924128,94.7691957 C104.278329,94.7691957 108,98.4908672 108,103.076783 L108,173.692413 C108,178.278329 104.278329,182 99.6924128,182 L8.30758717,169.538847 C3.72167149,169.538847 0,165.81672 0,161.230804 L0,74 C0,78.6191734 3.72167149,82.3116874 8.30758717,82.3116874 Z" id="Path" fill="#F4B459"></path>
                <path d="M88.5,124 C92.0879278,124 95,126.912072 95,130.5 C95,134.087928 92.0879278,137 88.5,137 C84.9120722,137 82,134.092205 82,130.5 C82,126.907795 84.9120722,124 88.5,124 Z" id="Path" fill="#E4E7E7"></path>
                <path d="M8.30758717,169.454504 L99.6924128,182 C104.278329,182 108,178.253275 108,173.636489 L108,156.909008 L8.30758717,144.363511 C3.72167149,144.363511 0,140.645682 0,136 L0,161.090992 C0,165.711448 3.72167149,169.454504 8.30758717,169.454504 Z" id="Path" fill="#D07C40"></path>
                <path d="M111.285649,120.333181 C111.285649,120.333181 132,115.987223 132,112 L132,124.5 C132,124.5 128.288156,132.833181 123.714351,132.833181 L111.285649,137 C106.707754,137 103,133.266863 103,128.666819 C103,124.066318 106.712298,120.333181 111.285649,120.333181 Z" id="Path" fill="#D07C40"></path>
            </g>
        </g>
    </g>
</svg>